<svg width="800" height="400" xmlns="http://www.w3.org/2000/svg" version="1.1"><g transform="translate(100,100)"><g class="arc"><path d="M-70.50674446071625,-63.66945096002681A95,95 0 0,1 -1.745121688784978e-14,-95L-1.5614246689128753e-14,-85A85,85 0 0,0 -63.08498188590401,-56.9674034905503Z" style="fill: rgb(191, 105, 105);"></path></g><g class="arc"><path d="M5.8170722959499274e-15,-95A95,95 0 1,1 -70.50674446071625,-63.66945096002681L-63.08498188590401,-56.9674034905503A85,85 0 1,0 5.204748896376251e-15,-85Z" style="fill: rgb(105, 191, 191);"></path></g><text y="105" style="text-anchor: middle; font-size: 11px; font-family: Arial, Helvetica;">Action</text></g><g transform="translate(300,100)"><g class="arc"><path d="M-76.59934350913822,-54.8155530036038A94.19237908197167,94.19237908197167 0 0,1 -1.0096249773284233e-13,-94.19237908197167L-9.024374333712004e-14,-84.19237908197167A84.19237908197167,84.19237908197167 0 0,0 -68.46712047202,-48.996021366559134Z" style="fill: rgb(191, 105, 105);"></path></g><g class="arc"><path d="M5.767619777340536e-15,-94.19237908197167A94.19237908197167,94.19237908197167 0 1,1 -76.59934350913822,-54.8155530036038L-68.46712047202,-48.996021366559134A84.19237908197167,84.19237908197167 0 1,0 5.1552963777668585e-15,-84.19237908197167Z" style="fill: rgb(105, 191, 191);"></path></g><text y="104.19237908197167" style="text-anchor: middle; font-size: 11px; font-family: Arial, Helvetica;">Adventure</text></g><g transform="translate(500,100)"><g class="arc"><path d="M-29.76330224952812,-47.37560224595956A55.949100519705716,55.949100519705716 0 0,1 3.941510065324101e-14,-55.949100519705716L3.237028665496079e-14,-45.949100519705716A45.949100519705716,45.949100519705716 0 0,0 -24.4435916602497,-38.90797688542789Z" style="fill: rgb(191, 105, 105);"></path></g><g class="arc"><path d="M3.425894343331556e-15,-55.949100519705716A55.949100519705716,55.949100519705716 0 1,1 -29.76330224952812,-47.37560224595956L-24.4435916602497,-38.90797688542789A45.949100519705716,45.949100519705716 0 1,0 2.8135709437578796e-15,-45.949100519705716Z" style="fill: rgb(105, 191, 191);"></path></g><text y="65.94910051970572" style="text-anchor: middle; font-size: 11px; font-family: Arial, Helvetica;">Thriller/Suspense</text></g><g transform="translate(700,100)"><g class="arc"><path d="M-22.695321010055764,-44.064915641903696A49.56606083074958,49.56606083074958 0 0,1 -9.10513766140807e-15,-49.56606083074958L-7.26816746268704e-15,-39.56606083074958A39.56606083074958,39.56606083074958 0 0,0 -18.11651837178435,-35.174776925339216Z" style="fill: rgb(191, 105, 105);"></path></g><g class="arc"><path d="M3.0350458871360234e-15,-49.56606083074958A49.56606083074958,49.56606083074958 0 1,1 -22.695321010055764,-44.064915641903696L-18.11651837178435,-35.174776925339216A39.56606083074958,39.56606083074958 0 1,0 2.422722487562347e-15,-39.56606083074958Z" style="fill: rgb(105, 191, 191);"></path></g><text y="59.56606083074958" style="text-anchor: middle; font-size: 11px; font-family: Arial, Helvetica;">Drama</text></g><g transform="translate(100,300)"><g class="arc"><path d="M-12.708512568223387,14.609803912651545A19.36369443217952,19.36369443217952 0 0,1 -3.557052960905411e-15,-19.36369443217952L-1.7200827621843815e-15,-9.363694432179521A9.363694432179521,9.363694432179521 0 0,0 -6.145450641825826,7.064857382007956Z" style="fill: rgb(191, 105, 105);"></path></g><g class="arc"><path d="M1.1856843203018038e-15,-19.36369443217952A19.36369443217952,19.36369443217952 0 1,1 -12.708512568223387,14.609803912651545L-6.145450641825826,7.064857382007956A9.363694432179521,9.363694432179521 0 1,0 5.733609207281271e-16,-9.363694432179521Z" style="fill: rgb(105, 191, 191);"></path></g><text y="29.36369443217952" style="text-anchor: middle; font-size: 11px; font-family: Arial, Helvetica;">Comedy</text></g><g transform="translate(300,300)"><g class="arc"><path d="M-14.343970577127227,6.749760204355563A15.85272073600597,15.85272073600597 0 0,1 -2.9120975560689876e-15,-15.85272073600597L-1.075127357347958e-15,-5.8527207360059705A5.8527207360059705,5.8527207360059705 0 0,0 -5.2957000524670335,2.491967288704834Z" style="fill: rgb(191, 105, 105);"></path></g><g class="arc"><path d="M9.706991853563292e-16,-15.85272073600597A15.85272073600597,15.85272073600597 0 1,1 -14.343970577127227,6.749760204355563L-5.2957000524670335,2.491967288704834A5.8527207360059705,5.8527207360059705 0 1,0 3.5837578578265266e-16,-5.8527207360059705Z" style="fill: rgb(105, 191, 191);"></path></g><text y="25.85272073600597" style="text-anchor: middle; font-size: 11px; font-family: Arial, Helvetica;">Romantic Comedy</text></g></svg>